<svg width="28" height="585" viewBox="0 0 28 585" fill="none" xmlns="http://www.w3.org/2000/svg">
<path opacity="0.5" d="M23.2 330.1L4.4 322.98L4.4 321.9L23.2 329.02L23.2 330.1ZM23.2 318.108L4.4 310.988L4.4 309.908L23.2 317.028L23.2 318.108ZM23.2 306.116L4.4 298.996L4.4 297.916L23.2 305.036L23.2 306.116ZM23.2 294.123L4.4 287.003L4.4 285.923L23.2 293.043L23.2 294.123ZM23.2 282.131L4.4 275.011L4.4 273.931L23.2 281.051L23.2 282.131ZM23.2 270.139L4.4 263.019L4.4 261.939L23.2 269.059L23.2 270.139Z" fill="#979797"/>
<line opacity="0.5" x1="12.5" y1="179" x2="12.5" y2="2.18557e-08" stroke="#979797"/>
<line opacity="0.5" x1="13.5" y1="585" x2="13.5" y2="406" stroke="#979797"/>
</svg>
