<svg width="28" height="585" viewBox="0 0 28 585" fill="none" xmlns="http://www.w3.org/2000/svg">
<path opacity="0.5" d="M23.2 330.5L4.4 323.4L4.4 321.5L23.2 328.6L23.2 330.5ZM23.2 318.508L4.4 311.408L4.4 309.508L23.2 316.608L23.2 318.508ZM23.2 306.516L4.4 299.416L4.4 297.516L23.2 304.616L23.2 306.516ZM23.2 294.523L4.4 287.423L4.4 285.523L23.2 292.623L23.2 294.523ZM23.2 282.531L4.4 275.431L4.4 273.531L23.2 280.631L23.2 282.531ZM23.2 270.539L4.4 263.439L4.4 261.539L23.2 268.639L23.2 270.539Z" fill="#979797"/>
<line opacity="0.5" x1="12" y1="179" x2="12" y2="4.37114e-08" stroke="#979797" stroke-width="2"/>
<line opacity="0.5" x1="13" y1="585" x2="13" y2="406" stroke="#979797" stroke-width="2"/>
</svg>
