<svg width="664" height="337" viewBox="0 0 664 337" fill="none" xmlns="http://www.w3.org/2000/svg">
<line x1="0.292219" y1="203.044" x2="432.292" y2="335.044" stroke="#F75049" stroke-width="2"/>
<line x1="252.265" y1="1.03578" x2="663.265" y2="114.036" stroke="#F75049" stroke-width="2"/>
<line x1="220.267" y1="29.0364" x2="631.267" y2="143.036" stroke="#F75049" stroke-width="2"/>
<line x1="186.276" y1="55.0387" x2="601.276" y2="174.039" stroke="#F75049" stroke-width="2"/>
<line x1="149.273" y1="85.0379" x2="569.273" y2="204.038" stroke="#F75049" stroke-width="2"/>
<line x1="113.275" y1="114.039" x2="536.275" y2="235.039" stroke="#F75049" stroke-width="2"/>
<line x1="77.2842" y1="142.041" x2="502.284" y2="268.041" stroke="#F75049" stroke-width="2"/>
<line x1="41.2892" y1="172.043" x2="468.289" y2="301.043" stroke="#F75049" stroke-width="2"/>
<line x1="662.693" y1="113.721" x2="431.693" y2="335.721" stroke="#F75049" stroke-width="2"/>
<line x1="601.68" y1="96.733" x2="365.68" y2="315.733" stroke="#F75049" stroke-width="2"/>
<line x1="532.673" y1="79.7397" x2="296.505" y2="294.56" stroke="#F75049" stroke-width="2"/>
<line x1="473.667" y1="62.7447" x2="236.393" y2="275.396" stroke="#F75049" stroke-width="2"/>
<line x1="420.66" y1="47.751" x2="181.266" y2="258.202" stroke="#F75049" stroke-width="2"/>
<line x1="367.643" y1="32.7475" x2="121.081" y2="239.784" stroke="#F75049" stroke-width="2"/>
<line x1="312.636" y1="16.772" x2="63.6356" y2="221.772" stroke="#F75049" stroke-width="2"/>
<line x1="253.624" y1="1.78147" x2="0.623954" y2="203.781" stroke="#F75049" stroke-width="2"/>
</svg>
