<?xml version="1.0" encoding="UTF-8"?>
<svg xmlns="http://www.w3.org/2000/svg" version="1.1" viewBox="0 0 192.2 39.1">
  <defs>
    <style>
      .cls-1 {
        fill: #fff;
      }
    </style>
  </defs>
  <!-- Generator: Adobe Illustrator 28.7.1, SVG Export Plug-In . SVG Version: 1.2.0 Build 142)  -->
  <g>
    <g id="Layer_1">
      <g id="Layer_1-2" data-name="Layer_1">
        <g>
          <path class="cls-1" d="M46.7.5l14.5,20.7c.6.9.9,2,.9,3.1v14.6c0,.3.3.4.5.2l3.5-3.5,6.9-6.9s0-.1,0-.2v-5.8s0-.1,0-.2L88.6.5C88.8.3,88.6,0,88.4,0h-12.7C75.6,0,75.5,0,75.4.1l-7.5,10.7c0,.2-.4.2-.5,0L60,.1C59.9,0,59.8,0,59.7,0h-12.7c-.2,0-.4.3-.2.5h0Z"/>
          <path class="cls-1" d="M24.5.3v14.3c0,.1-.1.3-.3.3h-12.9c-.1,0-.3-.1-.3-.3V.3c0,0-.1-.1-.2,0L0,11s0,.1,0,.2v27.5c0,.1.1.3.3.3h10.5c.1,0,.3-.1.3-.3v-14.3c0-.1.1-.3.3-.3h12.9c.1,0,.3.1.3.3v14.3c0,.1.1.3.3.3h10.5c.1,0,.3-.1.3-.3V.3c0-.1-.1-.3-.3-.3h-10.5c-.1,0-.3.1-.3.3h0Z"/>
          <path class="cls-1" d="M172.2,23.8c4.4-1.2,7.6-5.2,7.6-10v-3.5c0-5.7-4.6-10.3-10.3-10.3h-22.7c-.3,0-.4.3-.2.5l7.2,7.2c1,1,2.4,1.6,3.8,1.6h9.8c.8,0,1.5.7,1.5,1.5v2.6c0,.8-.7,1.5-1.5,1.5h-22.7c-.1,0-.3.1-.3.3v8.7c0,.1.1.3.3.3h12.7c1.9,0,3.7,1,4.6,2.6l6.3,10.9c.5.8,1.3,1.3,2.3,1.3h9.6c.2,0,.4,0,.5-.3s0-.4,0-.5h0l-8.3-14.5h0Z"/>
          <path class="cls-1" d="M123.1,0h-22.7c-.3,0-.4.3-.2.5l8.7,8.7s.1,0,.2,0h11.9c.8,0,1.5.7,1.5,1.5v2.6c0,.8-.7,1.5-1.5,1.5h-22.6c-.2,0-.4.2-.4.4v23.4c0,.1.1.3.3.3h10.5c.1,0,.3-.1.3-.3v-14.3c0-.1.1-.3.3-.3h13.9c5.7,0,10.3-4.6,10.3-10.3v-3.5c0-5.7-4.6-10.3-10.3-10.3h0c0-.1,0-.1,0-.1Z"/>
          <path class="cls-1" d="M184.7,4.7V.7h-1.5v-.7h3.7v.7h-1.5v4h-.8,0ZM187.7,4.7V0h1.1l1.2,3.7h0l1.2-3.7h1.1v4.6h-.7V.9h0c-.1.6-.3,1-.5,1.5l-.8,2.3h-.7l-.8-2.3-.4-1.5h0v3.7h-.7,0Z"/>
        </g>
      </g>
    </g>
  </g>
</svg>