<svg viewBox="0 0 273 45" fill="none" xmlns="http://www.w3.org/2000/svg"><path d="M243.598 2.289h.521l22.105 18.112V2.983h6.134v39.928h-6.134v-14.93L249.79 14.384v28.528h-6.192V2.29Z" fill="url(#a)" fill-opacity=".2"/><path d="M196.831 33.827c-1.813-3.164-2.72-6.79-2.72-10.88 0-4.127.907-7.753 2.72-10.878 1.813-3.164 4.301-5.633 7.465-7.407C207.498 2.887 211.182 2 215.348 2c4.167 0 7.832.887 10.995 2.662 3.202 1.774 5.69 4.243 7.465 7.407 1.813 3.124 2.719 6.75 2.719 10.879 0 4.089-.906 7.715-2.719 10.879-1.775 3.163-4.263 5.632-7.465 7.406-3.163 1.775-6.828 2.662-10.995 2.662-4.166 0-7.85-.887-11.052-2.662-3.164-1.774-5.652-4.243-7.465-7.406Zm31.422-3.01c1.273-2.276 1.909-4.899 1.909-7.87 0-2.97-.636-5.574-1.909-7.811-1.235-2.276-2.971-4.051-5.208-5.324-2.238-1.273-4.803-1.91-7.697-1.91-2.893 0-5.458.637-7.696 1.91-2.237 1.273-3.993 3.048-5.266 5.324-1.273 2.237-1.909 4.841-1.909 7.812 0 2.97.636 5.593 1.909 7.87a13.813 13.813 0 0 0 5.266 5.265c2.238 1.273 4.803 1.91 7.696 1.91 2.894 0 5.459-.637 7.697-1.91 2.237-1.273 3.973-3.028 5.208-5.265Z" fill="url(#b)" fill-opacity=".2"/><path d="M161.318 2.983h11.921c4.938 0 8.757 1.138 11.457 3.415 2.701 2.276 4.051 5.497 4.051 9.663 0 2.508-.559 4.707-1.678 6.597-1.08 1.852-2.643 3.318-4.687 4.398l7.638 15.855h-6.655l-6.423-14.12c-1.273.194-2.642.29-4.108.29h-5.324v13.83h-6.192V2.983ZM172.66 23.41c6.481 0 9.722-2.45 9.722-7.349 0-4.938-3.241-7.407-9.722-7.407h-5.15V23.41h5.15Z" fill="url(#c)" fill-opacity=".2"/><path d="M137.732 8.712h-11.747V2.983h29.628v5.73h-11.747V42.91h-6.134V8.712Z" fill="url(#d)" fill-opacity=".2"/><path d="M114.077 2.983h6.192v39.928h-6.192V2.983Z" fill="url(#e)" fill-opacity=".2"/><path d="M92.886 16.062c1.35-3.318 2.7-5.941 4.051-7.87 1.389-1.968 2.893-3.376 4.514-4.225 1.62-.848 3.51-1.273 5.671-1.273 1.003 0 1.832.097 2.488.29V8.77a2.756 2.756 0 0 0-.637-.057 4.576 4.576 0 0 0-.752-.058c-1.929 0-3.568.675-4.919 2.025-1.35 1.35-2.7 3.646-4.05 6.886l-4.977 12.21c-1.35 3.318-2.72 5.96-4.108 7.928-1.39 1.967-2.932 3.375-4.63 4.224-1.658.849-3.645 1.273-5.96 1.273-.578 0-1.138-.039-1.678-.116a11.955 11.955 0 0 1-1.447-.29V37.01c.54.154 1.196.232 1.968.232 2.16 0 3.954-.675 5.381-2.026 1.428-1.35 2.797-3.665 4.109-6.944l4.976-12.21Z" fill="url(#f)" fill-opacity=".2"/><path d="M35.324 33.827c-1.813-3.164-2.72-6.79-2.72-10.88 0-4.127.907-7.753 2.72-10.878 1.813-3.164 4.302-5.633 7.465-7.407C45.99 2.887 49.675 2 53.84 2c4.167 0 7.832.887 10.995 2.662 3.202 1.774 5.69 4.243 7.465 7.407 1.813 3.124 2.72 6.75 2.72 10.879 0 4.089-.907 7.715-2.72 10.879-1.775 3.163-4.263 5.632-7.465 7.406-3.163 1.775-6.828 2.662-10.995 2.662-4.166 0-7.85-.887-11.052-2.662-3.163-1.774-5.652-4.243-7.465-7.406Zm31.422-3.01c1.273-2.276 1.91-4.899 1.91-7.87 0-2.97-.637-5.574-1.91-7.811-1.235-2.276-2.97-4.051-5.208-5.324-2.238-1.273-4.803-1.91-7.697-1.91-2.893 0-5.458.637-7.696 1.91-2.237 1.273-3.993 3.048-5.266 5.324-1.273 2.237-1.91 4.841-1.91 7.812 0 2.97.637 5.593 1.91 7.87a13.81 13.81 0 0 0 5.266 5.265c2.238 1.273 4.803 1.91 7.696 1.91 2.894 0 5.46-.637 7.697-1.91s3.973-3.028 5.208-5.265Z" fill="url(#g)" fill-opacity=".2"/><path d="M1 2.983h11.342c4.938 0 8.776 1.235 11.515 3.704 2.778 2.469 4.167 5.883 4.167 10.242 0 4.36-1.39 7.774-4.167 10.243-2.739 2.43-6.577 3.645-11.515 3.645h-5.15v12.094H1V2.983Zm11.11 22.163c3.087 0 5.44-.694 7.06-2.083 1.659-1.427 2.488-3.472 2.488-6.134 0-2.7-.83-4.745-2.488-6.134-1.62-1.427-3.973-2.14-7.06-2.14H7.192v16.491h4.918Z" fill="url(#h)" fill-opacity=".2"/><path d="M243.598 2.289h.521l22.105 18.112V2.983h6.134v39.928h-6.134v-14.93L249.79 14.384v28.528h-6.192V2.29Z" stroke="url(#i)" stroke-opacity=".2" stroke-width=".5"/><path d="M196.831 33.827c-1.813-3.164-2.72-6.79-2.72-10.88 0-4.127.907-7.753 2.72-10.878 1.813-3.164 4.301-5.633 7.465-7.407C207.498 2.887 211.182 2 215.348 2c4.167 0 7.832.887 10.995 2.662 3.202 1.774 5.69 4.243 7.465 7.407 1.813 3.124 2.719 6.75 2.719 10.879 0 4.089-.906 7.715-2.719 10.879-1.775 3.163-4.263 5.632-7.465 7.406-3.163 1.775-6.828 2.662-10.995 2.662-4.166 0-7.85-.887-11.052-2.662-3.164-1.774-5.652-4.243-7.465-7.406Zm31.422-3.01c1.273-2.276 1.909-4.899 1.909-7.87 0-2.97-.636-5.574-1.909-7.811-1.235-2.276-2.971-4.051-5.208-5.324-2.238-1.273-4.803-1.91-7.697-1.91-2.893 0-5.458.637-7.696 1.91-2.237 1.273-3.993 3.048-5.266 5.324-1.273 2.237-1.909 4.841-1.909 7.812 0 2.97.636 5.593 1.909 7.87a13.813 13.813 0 0 0 5.266 5.265c2.238 1.273 4.803 1.91 7.696 1.91 2.894 0 5.459-.637 7.697-1.91 2.237-1.273 3.973-3.028 5.208-5.265Z" stroke="url(#j)" stroke-opacity=".2" stroke-width=".5"/><path d="M161.318 2.983h11.921c4.938 0 8.757 1.138 11.457 3.415 2.701 2.276 4.051 5.497 4.051 9.663 0 2.508-.559 4.707-1.678 6.597-1.08 1.852-2.643 3.318-4.687 4.398l7.638 15.855h-6.655l-6.423-14.12c-1.273.194-2.642.29-4.108.29h-5.324v13.83h-6.192V2.983ZM172.66 23.41c6.481 0 9.722-2.45 9.722-7.349 0-4.938-3.241-7.407-9.722-7.407h-5.15V23.41h5.15Z" stroke="url(#k)" stroke-opacity=".2" stroke-width=".5"/><path d="M137.732 8.712h-11.747V2.983h29.628v5.73h-11.747V42.91h-6.134V8.712Z" stroke="url(#l)" stroke-opacity=".2" stroke-width=".5"/><path d="M114.077 2.983h6.192v39.928h-6.192V2.983Z" stroke="url(#m)" stroke-opacity=".2" stroke-width=".5"/><path d="M92.886 16.062c1.35-3.318 2.7-5.941 4.051-7.87 1.389-1.968 2.893-3.376 4.514-4.225 1.62-.848 3.51-1.273 5.671-1.273 1.003 0 1.832.097 2.488.29V8.77a2.756 2.756 0 0 0-.637-.057 4.576 4.576 0 0 0-.752-.058c-1.929 0-3.568.675-4.919 2.025-1.35 1.35-2.7 3.646-4.05 6.886l-4.977 12.21c-1.35 3.318-2.72 5.96-4.108 7.928-1.39 1.967-2.932 3.375-4.63 4.224-1.658.849-3.645 1.273-5.96 1.273-.578 0-1.138-.039-1.678-.116a11.955 11.955 0 0 1-1.447-.29V37.01c.54.154 1.196.232 1.968.232 2.16 0 3.954-.675 5.381-2.026 1.428-1.35 2.797-3.665 4.109-6.944l4.976-12.21Z" stroke="url(#n)" stroke-opacity=".2" stroke-width=".5"/><path d="M35.324 33.827c-1.813-3.164-2.72-6.79-2.72-10.88 0-4.127.907-7.753 2.72-10.878 1.813-3.164 4.302-5.633 7.465-7.407C45.99 2.887 49.675 2 53.84 2c4.167 0 7.832.887 10.995 2.662 3.202 1.774 5.69 4.243 7.465 7.407 1.813 3.124 2.72 6.75 2.72 10.879 0 4.089-.907 7.715-2.72 10.879-1.775 3.163-4.263 5.632-7.465 7.406-3.163 1.775-6.828 2.662-10.995 2.662-4.166 0-7.85-.887-11.052-2.662-3.163-1.774-5.652-4.243-7.465-7.406Zm31.422-3.01c1.273-2.276 1.91-4.899 1.91-7.87 0-2.97-.637-5.574-1.91-7.811-1.235-2.276-2.97-4.051-5.208-5.324-2.238-1.273-4.803-1.91-7.697-1.91-2.893 0-5.458.637-7.696 1.91-2.237 1.273-3.993 3.048-5.266 5.324-1.273 2.237-1.91 4.841-1.91 7.812 0 2.97.637 5.593 1.91 7.87a13.81 13.81 0 0 0 5.266 5.265c2.238 1.273 4.803 1.91 7.696 1.91 2.894 0 5.46-.637 7.697-1.91s3.973-3.028 5.208-5.265Z" stroke="url(#o)" stroke-opacity=".2" stroke-width=".5"/><path d="M1 .983h11.342c4.938 0 8.776 1.235 11.515 3.704 2.778 2.469 4.167 5.883 4.167 10.242 0 4.36-1.39 7.774-4.167 10.243-2.739 2.43-6.577 3.645-11.515 3.645h-5.15v12.094H1V.983Zm11.11 22.163c3.087 0 5.44-.694 7.06-2.083 1.659-1.427 2.488-3.472 2.488-6.134 0-2.7-.83-4.745-2.488-6.134-1.62-1.427-3.973-2.14-7.06-2.14H7.192v16.491h4.918Z" stroke="url(#p)" stroke-opacity=".2" stroke-width=".5"/><path d="M243.598.289h.521l22.105 18.112V.983h6.134v39.928h-6.134v-14.93L249.79 12.384v28.528h-6.192V.29Z" fill="url(#q)"/><path d="M196.831 31.826c-1.813-3.163-2.72-6.79-2.72-10.878 0-4.128.907-7.755 2.72-10.88 1.813-3.163 4.302-5.632 7.465-7.406C207.498.887 211.182 0 215.348 0c4.167 0 7.832.887 10.995 2.662 3.202 1.774 5.69 4.243 7.465 7.407 1.813 3.124 2.72 6.75 2.72 10.879 0 4.089-.907 7.715-2.72 10.878-1.775 3.164-4.263 5.633-7.465 7.407-3.163 1.775-6.828 2.662-10.995 2.662-4.166 0-7.85-.887-11.052-2.662-3.163-1.774-5.652-4.243-7.465-7.406Zm31.422-3.009c1.273-2.276 1.91-4.899 1.91-7.87 0-2.97-.637-5.574-1.91-7.811-1.235-2.276-2.97-4.051-5.208-5.324-2.238-1.273-4.803-1.91-7.697-1.91-2.893 0-5.458.637-7.696 1.91-2.237 1.273-3.993 3.048-5.266 5.324-1.273 2.237-1.91 4.841-1.91 7.812 0 2.97.637 5.593 1.91 7.87a13.81 13.81 0 0 0 5.266 5.265c2.238 1.273 4.803 1.91 7.696 1.91 2.894 0 5.46-.637 7.697-1.91s3.973-3.028 5.208-5.265Z" fill="url(#r)"/><path d="M161.318.983h11.921c4.938 0 8.757 1.138 11.457 3.415 2.701 2.276 4.051 5.497 4.051 9.663 0 2.508-.559 4.707-1.678 6.597-1.08 1.852-2.643 3.318-4.687 4.398l7.638 15.855h-6.655l-6.423-14.12c-1.273.194-2.642.29-4.108.29h-5.324v13.83h-6.192V.983ZM172.66 21.41c6.481 0 9.722-2.45 9.722-7.349 0-4.938-3.241-7.407-9.722-7.407h-5.15V21.41h5.15Z" fill="url(#s)"/><path d="M137.732 6.712h-11.747V.983h29.628v5.73h-11.747V40.91h-6.134V6.712Z" fill="url(#t)"/><path d="M114.077.983h6.192v39.928h-6.192V.983Z" fill="url(#u)"/><path d="M92.886 14.062c1.35-3.318 2.7-5.941 4.051-7.87 1.389-1.968 2.893-3.376 4.514-4.224 1.62-.85 3.51-1.274 5.671-1.274 1.003 0 1.832.097 2.488.29V6.77a2.756 2.756 0 0 0-.637-.057 4.576 4.576 0 0 0-.752-.058c-1.929 0-3.568.675-4.919 2.025-1.35 1.35-2.7 3.646-4.05 6.886l-4.977 12.21c-1.35 3.318-2.72 5.96-4.108 7.928-1.39 1.967-2.932 3.375-4.63 4.224-1.658.849-3.645 1.273-5.96 1.273-.578 0-1.138-.039-1.678-.116a11.955 11.955 0 0 1-1.447-.29V35.01c.54.154 1.196.232 1.968.232 2.16 0 3.954-.675 5.381-2.026 1.428-1.35 2.797-3.665 4.109-6.944l4.976-12.21Z" fill="url(#v)"/><path d="M35.324 31.826c-1.813-3.163-2.72-6.79-2.72-10.878 0-4.128.907-7.755 2.72-10.88 1.813-3.163 4.302-5.632 7.465-7.406C45.99.887 49.675 0 53.84 0c4.167 0 7.832.887 10.995 2.662 3.202 1.774 5.69 4.243 7.465 7.407 1.813 3.124 2.72 6.75 2.72 10.879 0 4.089-.907 7.715-2.72 10.878-1.775 3.164-4.263 5.633-7.465 7.407-3.163 1.775-6.828 2.662-10.995 2.662-4.166 0-7.85-.887-11.052-2.662-3.163-1.774-5.652-4.243-7.465-7.406Zm31.422-3.009c1.273-2.276 1.91-4.899 1.91-7.87 0-2.97-.637-5.574-1.91-7.811-1.235-2.276-2.97-4.051-5.208-5.324-2.238-1.273-4.803-1.91-7.697-1.91-2.893 0-5.458.637-7.696 1.91-2.237 1.273-3.993 3.048-5.266 5.324-1.273 2.237-1.91 4.841-1.91 7.812 0 2.97.637 5.593 1.91 7.87a13.81 13.81 0 0 0 5.266 5.265c2.238 1.273 4.803 1.91 7.696 1.91 2.894 0 5.46-.637 7.697-1.91s3.973-3.028 5.208-5.265Z" fill="url(#w)"/><path d="M1 .983h11.342c4.938 0 8.776 1.235 11.515 3.704 2.778 2.469 4.167 5.883 4.167 10.242 0 4.36-1.39 7.774-4.167 10.243-2.739 2.43-6.577 3.645-11.515 3.645h-5.15v12.094H1V.983Zm11.11 22.163c3.087 0 5.44-.694 7.06-2.083 1.659-1.427 2.488-3.472 2.488-6.134 0-2.7-.83-4.745-2.488-6.134-1.62-1.427-3.973-2.14-7.06-2.14H7.192v16.491h4.918Z" fill="url(#x)"/><defs><linearGradient id="a" x1="14.512" y1="2.983" x2="14.512" y2="42.911" gradientUnits="userSpaceOnUse"><stop stop-color="#BFEEEB" stop-opacity="0"/><stop offset="1" stop-color="#E6F8F8"/></linearGradient><linearGradient id="b" x1="14.512" y1="2.983" x2="14.512" y2="42.911" gradientUnits="userSpaceOnUse"><stop stop-color="#BFEEEB" stop-opacity="0"/><stop offset="1" stop-color="#E6F8F8"/></linearGradient><linearGradient id="c" x1="14.512" y1="2.983" x2="14.512" y2="42.911" gradientUnits="userSpaceOnUse"><stop stop-color="#BFEEEB" stop-opacity="0"/><stop offset="1" stop-color="#E6F8F8"/></linearGradient><linearGradient id="d" x1="14.512" y1="2.983" x2="14.512" y2="42.911" gradientUnits="userSpaceOnUse"><stop stop-color="#BFEEEB" stop-opacity="0"/><stop offset="1" stop-color="#E6F8F8"/></linearGradient><linearGradient id="e" x1="14.512" y1="2.983" x2="14.512" y2="42.911" gradientUnits="userSpaceOnUse"><stop stop-color="#BFEEEB" stop-opacity="0"/><stop offset="1" stop-color="#E6F8F8"/></linearGradient><linearGradient id="f" x1="14.512" y1="2.983" x2="14.512" y2="42.911" gradientUnits="userSpaceOnUse"><stop stop-color="#BFEEEB" stop-opacity="0"/><stop offset="1" stop-color="#E6F8F8"/></linearGradient><linearGradient id="g" x1="14.512" y1="2.983" x2="14.512" y2="42.911" gradientUnits="userSpaceOnUse"><stop stop-color="#BFEEEB" stop-opacity="0"/><stop offset="1" stop-color="#E6F8F8"/></linearGradient><linearGradient id="h" x1="14.512" y1="2.983" x2="14.512" y2="42.911" gradientUnits="userSpaceOnUse"><stop stop-color="#BFEEEB" stop-opacity="0"/><stop offset="1" stop-color="#E6F8F8"/></linearGradient><linearGradient id="i" x1="14.512" y1="2.983" x2="14.512" y2="42.911" gradientUnits="userSpaceOnUse"><stop stop-color="#BFEEEB" stop-opacity=".5"/><stop offset="1" stop-color="#E6F8F8"/></linearGradient><linearGradient id="j" x1="14.512" y1="2.983" x2="14.512" y2="42.911" gradientUnits="userSpaceOnUse"><stop stop-color="#BFEEEB" stop-opacity=".5"/><stop offset="1" stop-color="#E6F8F8"/></linearGradient><linearGradient id="k" x1="14.512" y1="2.983" x2="14.512" y2="42.911" gradientUnits="userSpaceOnUse"><stop stop-color="#BFEEEB" stop-opacity=".5"/><stop offset="1" stop-color="#E6F8F8"/></linearGradient><linearGradient id="l" x1="14.512" y1="2.983" x2="14.512" y2="42.911" gradientUnits="userSpaceOnUse"><stop stop-color="#BFEEEB" stop-opacity=".5"/><stop offset="1" stop-color="#E6F8F8"/></linearGradient><linearGradient id="m" x1="14.512" y1="2.983" x2="14.512" y2="42.911" gradientUnits="userSpaceOnUse"><stop stop-color="#BFEEEB" stop-opacity=".5"/><stop offset="1" stop-color="#E6F8F8"/></linearGradient><linearGradient id="n" x1="14.512" y1="2.983" x2="14.512" y2="42.911" gradientUnits="userSpaceOnUse"><stop stop-color="#BFEEEB" stop-opacity=".5"/><stop offset="1" stop-color="#E6F8F8"/></linearGradient><linearGradient id="o" x1="14.512" y1="2.983" x2="14.512" y2="42.911" gradientUnits="userSpaceOnUse"><stop stop-color="#BFEEEB" stop-opacity=".5"/><stop offset="1" stop-color="#E6F8F8"/></linearGradient><linearGradient id="p" x1="14.512" y1="2.983" x2="14.512" y2="42.911" gradientUnits="userSpaceOnUse"><stop stop-color="#BFEEEB" stop-opacity=".5"/><stop offset="1" stop-color="#E6F8F8"/></linearGradient><linearGradient id="q" x1="14.512" y1=".983" x2="14.512" y2="40.911" gradientUnits="userSpaceOnUse"><stop stop-color="#BFEEEB" stop-opacity=".8"/><stop offset="1" stop-color="#E6F8F8"/></linearGradient><linearGradient id="r" x1="14.512" y1=".983" x2="14.512" y2="40.911" gradientUnits="userSpaceOnUse"><stop stop-color="#BFEEEB" stop-opacity=".8"/><stop offset="1" stop-color="#E6F8F8"/></linearGradient><linearGradient id="s" x1="14.512" y1=".983" x2="14.512" y2="40.911" gradientUnits="userSpaceOnUse"><stop stop-color="#BFEEEB" stop-opacity=".8"/><stop offset="1" stop-color="#E6F8F8"/></linearGradient><linearGradient id="t" x1="14.512" y1=".983" x2="14.512" y2="40.911" gradientUnits="userSpaceOnUse"><stop stop-color="#BFEEEB" stop-opacity=".8"/><stop offset="1" stop-color="#E6F8F8"/></linearGradient><linearGradient id="u" x1="14.512" y1=".983" x2="14.512" y2="40.911" gradientUnits="userSpaceOnUse"><stop stop-color="#BFEEEB" stop-opacity=".8"/><stop offset="1" stop-color="#E6F8F8"/></linearGradient><linearGradient id="v" x1="14.512" y1=".983" x2="14.512" y2="40.911" gradientUnits="userSpaceOnUse"><stop stop-color="#BFEEEB" stop-opacity=".8"/><stop offset="1" stop-color="#E6F8F8"/></linearGradient><linearGradient id="w" x1="14.512" y1=".983" x2="14.512" y2="40.911" gradientUnits="userSpaceOnUse"><stop stop-color="#BFEEEB" stop-opacity=".8"/><stop offset="1" stop-color="#E6F8F8"/></linearGradient><linearGradient id="x" x1="14.512" y1=".983" x2="14.512" y2="40.911" gradientUnits="userSpaceOnUse"><stop stop-color="#BFEEEB" stop-opacity=".8"/><stop offset="1" stop-color="#E6F8F8"/></linearGradient></defs></svg>