<svg xmlns="http://www.w3.org/2000/svg" width="175" height="29" fill="none"><mask id="a" width="134" height="14" x="35.592" y="7.661" fill="#000" maskUnits="userSpaceOnUse"><path fill="#fff" d="M35.592 7.661h134v14h-134z"/><path d="M36.483 10.425v-.936h11.172v.936h-5.111V20.66h-.95V10.425h-5.111Zm13.499 8.602c-1.09-1.089-1.634-2.406-1.634-3.952 0-1.545.544-2.863 1.634-3.952 1.089-1.09 2.406-1.634 3.952-1.634h5.586v.936h-5.586a4.48 4.48 0 0 0-3.128 1.215 4.517 4.517 0 0 0-1.495 2.96H59.52v.95H49.31c.121 1.173.62 2.165 1.495 2.974.884.801 1.927 1.201 3.128 1.201h5.586v.936h-5.586c-1.546 0-2.863-.545-3.952-1.634Zm13.965-7.904c1.089-1.09 2.406-1.634 3.952-1.634 1.545 0 2.863.545 3.952 1.634 1.09 1.09 1.634 2.407 1.634 3.952v5.586h-.936v-5.586a4.55 4.55 0 0 0-.628-2.332 4.463 4.463 0 0 0-1.69-1.69 4.542 4.542 0 0 0-2.332-.628 4.55 4.55 0 0 0-2.332.628 4.565 4.565 0 0 0-1.704 1.69 4.62 4.62 0 0 0-.614 2.332v5.586h-.936v-5.586c0-1.545.544-2.863 1.634-3.952Zm15.361-1.634h8.142v.936h-8.142a2.02 2.02 0 0 0-1.48.614c-.41.41-.615.903-.615 1.48 0 .578.205 1.071.615 1.48.41.401.903.601 1.48.601h5.111c.838 0 1.55.298 2.137.894.596.587.894 1.299.894 2.137 0 .838-.298 1.555-.894 2.15a2.909 2.909 0 0 1-2.137.88h-8.141v-.936h8.141c.578 0 1.071-.204 1.48-.614.41-.41.615-.903.615-1.48 0-.578-.205-1.066-.614-1.467a2.018 2.018 0 0 0-1.48-.614h-5.112a2.955 2.955 0 0 1-2.15-.88 2.955 2.955 0 0 1-.88-2.15c0-.838.293-1.55.88-2.137a2.932 2.932 0 0 1 2.15-.894Zm12.569 1.634c1.089-1.09 2.406-1.634 3.952-1.634 1.545 0 2.863.545 3.952 1.634 1.089 1.09 1.634 2.407 1.634 3.952 0 1.546-.545 2.863-1.634 3.952-1.09 1.09-2.407 1.634-3.952 1.634-1.546 0-2.863-.545-3.952-1.634-1.09-1.089-1.634-2.406-1.634-3.952 0-1.545.544-2.863 1.634-3.952Zm1.62 7.988a4.62 4.62 0 0 0 2.332.614 4.62 4.62 0 0 0 2.332-.614 4.565 4.565 0 0 0 1.69-1.704 4.54 4.54 0 0 0 .628-2.332 4.54 4.54 0 0 0-.628-2.332 4.463 4.463 0 0 0-1.69-1.69 4.542 4.542 0 0 0-2.332-.628 4.55 4.55 0 0 0-2.332.628 4.565 4.565 0 0 0-1.704 1.69 4.62 4.62 0 0 0-.615 2.332 4.62 4.62 0 0 0 2.319 4.036Zm2.82-4.525c.14.13.21.294.21.49 0 .195-.07.362-.21.502a.663.663 0 0 1-.488.195.711.711 0 0 1-.503-.195.711.711 0 0 1-.195-.503c0-.195.065-.358.195-.489.14-.14.307-.21.503-.21a.64.64 0 0 1 .489.21Zm19.063-2.066c0 .53-.13 1.024-.391 1.48a2.974 2.974 0 0 1-1.02 1.075c.429.27.768.633 1.02 1.09.261.446.391.935.391 1.466v3.03h-.936v-3.03c0-.578-.205-1.066-.614-1.467a2.019 2.019 0 0 0-1.481-.614h-7.206v5.111h-.935V9.49h8.141c.838 0 1.551.298 2.137.894.596.586.894 1.299.894 2.137Zm-10.237-2.095V14.6h7.206c.578 0 1.071-.2 1.481-.6a2.02 2.02 0 0 0 .614-1.48 2.02 2.02 0 0 0-.614-1.48 2.019 2.019 0 0 0-1.481-.615h-7.206Zm16.06-.936h8.142v.936h-8.142a2.02 2.02 0 0 0-1.48.614c-.41.41-.615.903-.615 1.48 0 .578.205 1.071.615 1.48.41.401.903.601 1.48.601h5.111c.838 0 1.551.298 2.137.894.596.587.894 1.299.894 2.137 0 .838-.298 1.555-.894 2.15a2.908 2.908 0 0 1-2.137.88h-8.141v-.936h8.141c.578 0 1.071-.204 1.481-.614a2.02 2.02 0 0 0 .614-1.48c0-.578-.205-1.066-.614-1.467a2.019 2.019 0 0 0-1.481-.614h-5.111a2.952 2.952 0 0 1-2.15-.88 2.954 2.954 0 0 1-.88-2.15c0-.838.293-1.55.88-2.137a2.929 2.929 0 0 1 2.15-.894Zm10.935.936v-.936h11.172v.936h-5.111V20.66h-.95V10.425h-5.111Zm9.914 10.236 6.285-11.172 6.27 11.172h-1.145l-5.125-9.147-5.139 9.147h-1.146ZM166.408 9.49h1.327l-4.93 5.586 4.93 5.586h-1.327l-4.259-4.832-4.259 4.832h-1.327l4.93-5.586-4.93-5.586h1.327l4.259 4.832 4.259-4.832Z"/></mask><path fill="#7A7A7A" d="M36.483 10.425v-.936h11.172v.936h-5.111V20.66h-.95V10.425h-5.111Zm13.499 8.602c-1.09-1.089-1.634-2.406-1.634-3.952 0-1.545.544-2.863 1.634-3.952 1.089-1.09 2.406-1.634 3.952-1.634h5.586v.936h-5.586a4.48 4.48 0 0 0-3.128 1.215 4.517 4.517 0 0 0-1.495 2.96H59.52v.95H49.31c.121 1.173.62 2.165 1.495 2.974.884.801 1.927 1.201 3.128 1.201h5.586v.936h-5.586c-1.546 0-2.863-.545-3.952-1.634Zm13.965-7.904c1.089-1.09 2.406-1.634 3.952-1.634 1.545 0 2.863.545 3.952 1.634 1.09 1.09 1.634 2.407 1.634 3.952v5.586h-.936v-5.586a4.55 4.55 0 0 0-.628-2.332 4.463 4.463 0 0 0-1.69-1.69 4.542 4.542 0 0 0-2.332-.628 4.55 4.55 0 0 0-2.332.628 4.565 4.565 0 0 0-1.704 1.69 4.62 4.62 0 0 0-.614 2.332v5.586h-.936v-5.586c0-1.545.544-2.863 1.634-3.952Zm15.361-1.634h8.142v.936h-8.142a2.02 2.02 0 0 0-1.48.614c-.41.41-.615.903-.615 1.48 0 .578.205 1.071.615 1.48.41.401.903.601 1.48.601h5.111c.838 0 1.55.298 2.137.894.596.587.894 1.299.894 2.137 0 .838-.298 1.555-.894 2.15a2.909 2.909 0 0 1-2.137.88h-8.141v-.936h8.141c.578 0 1.071-.204 1.48-.614.41-.41.615-.903.615-1.48 0-.578-.205-1.066-.614-1.467a2.018 2.018 0 0 0-1.48-.614h-5.112a2.955 2.955 0 0 1-2.15-.88 2.955 2.955 0 0 1-.88-2.15c0-.838.293-1.55.88-2.137a2.932 2.932 0 0 1 2.15-.894Zm12.569 1.634c1.089-1.09 2.406-1.634 3.952-1.634 1.545 0 2.863.545 3.952 1.634 1.089 1.09 1.634 2.407 1.634 3.952 0 1.546-.545 2.863-1.634 3.952-1.09 1.09-2.407 1.634-3.952 1.634-1.546 0-2.863-.545-3.952-1.634-1.09-1.089-1.634-2.406-1.634-3.952 0-1.545.544-2.863 1.634-3.952Zm1.62 7.988a4.62 4.62 0 0 0 2.332.614 4.62 4.62 0 0 0 2.332-.614 4.565 4.565 0 0 0 1.69-1.704 4.54 4.54 0 0 0 .628-2.332 4.54 4.54 0 0 0-.628-2.332 4.463 4.463 0 0 0-1.69-1.69 4.542 4.542 0 0 0-2.332-.628 4.55 4.55 0 0 0-2.332.628 4.565 4.565 0 0 0-1.704 1.69 4.62 4.62 0 0 0-.615 2.332 4.62 4.62 0 0 0 2.319 4.036Zm2.82-4.525c.14.13.21.294.21.49 0 .195-.07.362-.21.502a.663.663 0 0 1-.488.195.711.711 0 0 1-.503-.195.711.711 0 0 1-.195-.503c0-.195.065-.358.195-.489.14-.14.307-.21.503-.21a.64.64 0 0 1 .489.21Zm19.063-2.066c0 .53-.13 1.024-.391 1.48a2.974 2.974 0 0 1-1.02 1.075c.429.27.768.633 1.02 1.09.261.446.391.935.391 1.466v3.03h-.936v-3.03c0-.578-.205-1.066-.614-1.467a2.019 2.019 0 0 0-1.481-.614h-7.206v5.111h-.935V9.49h8.141c.838 0 1.551.298 2.137.894.596.586.894 1.299.894 2.137Zm-10.237-2.095V14.6h7.206c.578 0 1.071-.2 1.481-.6a2.02 2.02 0 0 0 .614-1.48 2.02 2.02 0 0 0-.614-1.48 2.019 2.019 0 0 0-1.481-.615h-7.206Zm16.06-.936h8.142v.936h-8.142a2.02 2.02 0 0 0-1.48.614c-.41.41-.615.903-.615 1.48 0 .578.205 1.071.615 1.48.41.401.903.601 1.48.601h5.111c.838 0 1.551.298 2.137.894.596.587.894 1.299.894 2.137 0 .838-.298 1.555-.894 2.15a2.908 2.908 0 0 1-2.137.88h-8.141v-.936h8.141c.578 0 1.071-.204 1.481-.614a2.02 2.02 0 0 0 .614-1.48c0-.578-.205-1.066-.614-1.467a2.019 2.019 0 0 0-1.481-.614h-5.111a2.952 2.952 0 0 1-2.15-.88 2.954 2.954 0 0 1-.88-2.15c0-.838.293-1.55.88-2.137a2.929 2.929 0 0 1 2.15-.894Zm10.935.936v-.936h11.172v.936h-5.111V20.66h-.95V10.425h-5.111Zm9.914 10.236 6.285-11.172 6.27 11.172h-1.145l-5.125-9.147-5.139 9.147h-1.146ZM166.408 9.49h1.327l-4.93 5.586 4.93 5.586h-1.327l-4.259-4.832-4.259 4.832h-1.327l4.93-5.586-4.93-5.586h1.327l4.259 4.832 4.259-4.832Z"/><path fill="#7A7A7A" d="M36.483 10.425h-.475v.475h.475v-.475Zm0-.936v-.475h-.475v.475h.475Zm11.172 0h.475v-.475h-.475v.475Zm0 .936v.475h.475v-.475h-.475Zm-5.111 0V9.95h-.475v.475h.475Zm0 10.236v.475h.475v-.475h-.475Zm-.95 0h-.475v.475h.475v-.475Zm0-10.236h.475V9.95h-.475v.475Zm-4.636 0v-.936h-.95v.936h.95Zm-.475-.46h11.172v-.95H36.483v.95Zm10.697-.476v.936h.95v-.936h-.95Zm.475.46h-5.111v.95h5.111v-.95Zm-5.586.476V20.66h.95V10.425h-.95Zm.475 9.761h-.95v.95h.95v-.95Zm-.475.475V10.425h-.95V20.66h.95ZM41.594 9.95h-5.111v.95h5.111v-.95Zm8.388 9.077-.336.336.336-.336Zm0-7.904-.336-.336.336.336Zm9.538-1.634h.475v-.475h-.475v.475Zm0 .936v.475h.475v-.475h-.475Zm-8.714 1.215.32.35-.32-.35ZM49.31 14.6l-.472-.048-.054.523h.526V14.6Zm10.209 0h.475v-.475h-.475v.475Zm0 .95v.475h.475v-.475h-.475Zm-10.209 0v-.475h-.526l.054.524.472-.05Zm1.495 2.974-.323.35.004.003.319-.352Zm8.714 1.201h.475v-.475h-.475v.476Zm0 .936v.475h.475v-.475h-.475Zm-9.202-1.97c-1-1-1.495-2.196-1.495-3.616h-.95c0 1.671.594 3.11 1.773 4.288l.672-.672Zm-1.495-3.616c0-1.42.495-2.616 1.495-3.616l-.672-.672c-1.179 1.179-1.773 2.617-1.773 4.288h.95Zm1.495-3.616c1-1 2.196-1.495 3.616-1.495v-.95c-1.671 0-3.11.594-4.288 1.773l.672.672Zm3.616-1.495h5.586v-.95h-5.586v.95Zm5.11-.475v.936h.95v-.936h-.95Zm.476.46h-5.586v.95h5.586v-.95Zm-5.586 0c-1.32 0-2.477.45-3.45 1.34l.642.701a4.005 4.005 0 0 1 2.808-1.09v-.95Zm-3.449 1.34a4.991 4.991 0 0 0-1.646 3.263l.945.097a4.042 4.042 0 0 1 1.342-2.659l-.64-.7Zm-1.174 3.786h10.21v-.95H49.31v.95Zm9.734-.475v.95h.95v-.95h-.95Zm.475.475H49.31v.95h10.21v-.95Zm-10.681.524c.133 1.289.685 2.387 1.644 3.274l.645-.697c-.791-.733-1.235-1.618-1.344-2.675l-.945.098Zm1.648 3.278c.972.88 2.129 1.324 3.447 1.324v-.95c-1.084 0-2.013-.358-2.81-1.079l-.637.705Zm3.447 1.324h5.586v-.95h-5.586v.95Zm5.11-.476v.936h.95v-.936h-.95Zm.476.461h-5.586v.95h5.586v-.95Zm-5.586 0c-1.42 0-2.616-.495-3.616-1.495l-.672.672c1.178 1.179 2.617 1.773 4.288 1.773v-.95Zm10.013-9.063-.336-.336.336.336Zm7.904 0 .336-.336-.336.336Zm1.634 9.538v.475h.475v-.475h-.475Zm-.936 0h-.475v.475h.475v-.475Zm-.628-7.918-.413.236.003.004.41-.24Zm-1.69-1.69-.24.41.004.003.236-.413Zm-4.664 0 .235.413.004-.003-.24-.41Zm-1.704 1.69-.41-.24-.003.004.413.236Zm-.614 7.918v.475h.474v-.475h-.474Zm-.936 0h-.475v.475h.475v-.475Zm1.97-9.202c1-1 2.196-1.495 3.616-1.495v-.95c-1.671 0-3.11.594-4.288 1.773l.672.672Zm3.616-1.495c1.42 0 2.616.495 3.616 1.495l.672-.672c-1.179-1.179-2.617-1.773-4.288-1.773v.95Zm3.616 1.495c1 1 1.495 2.196 1.495 3.616h.95c0-1.67-.594-3.11-1.773-4.288l-.672.672Zm1.495 3.616v5.586h.95v-5.586h-.95Zm.475 5.111h-.936v.95h.936v-.95Zm-.46.475v-5.586h-.95v5.586h.95Zm0-5.586a5.02 5.02 0 0 0-.694-2.572l-.82.48c.376.643.563 1.338.563 2.092h.95Zm-.692-2.568a4.937 4.937 0 0 0-1.866-1.866l-.472.825c.644.367 1.146.87 1.513 1.513l.825-.472Zm-1.862-1.864a5.017 5.017 0 0 0-2.572-.693v.95c.754 0 1.449.187 2.092.563l.48-.82Zm-2.572-.693c-.921 0-1.782.231-2.572.693l.48.82a4.067 4.067 0 0 1 2.092-.563v-.95Zm-2.568.69a5.04 5.04 0 0 0-1.878 1.863l.82.48a4.09 4.09 0 0 1 1.53-1.517l-.472-.825Zm-1.88 1.867a5.097 5.097 0 0 0-.678 2.568h.95c0-.756.184-1.452.552-2.096l-.825-.472Zm-.678 2.568v5.586h.95v-5.586h-.95Zm.475 5.111h-.935v.95h.935v-.95Zm-.46.475v-5.586h-.95v5.586h.95Zm0-5.586c0-1.42.495-2.616 1.495-3.616l-.672-.672c-1.179 1.179-1.773 2.617-1.773 4.288h.95ZM87.45 9.49h.475v-.475h-.475v.475Zm0 .936v.475h.475v-.475h-.475Zm-9.622.614.336.336-.336-.336Zm0 2.96-.336.337.004.003.332-.34Zm8.728 1.495-.338.333.005.006.333-.339Zm0 4.287-.336-.335.336.335Zm-10.278.88h-.475v.475h.475v-.475Zm0-.936v-.475h-.475v.476h.475Zm9.622-.614-.336-.336.336.336Zm0-2.947-.336.336.004.004.332-.34Zm-8.742-1.494-.339.333.005.006.334-.339Zm0-4.287-.336-.336.336.336Zm2.15-.419h8.142v-.95h-8.142v.95Zm7.667-.475v.936h.95V9.49h-.95Zm.475.46h-8.142v.95h8.142v-.95Zm-8.142 0c-.704 0-1.318.256-1.816.754l.672.672c.32-.32.694-.475 1.144-.475v-.95Zm-1.816.754a2.492 2.492 0 0 0-.754 1.817h.95c0-.451.155-.824.476-1.145l-.672-.672Zm-.754 1.817c0 .703.256 1.317.754 1.816l.672-.672a1.544 1.544 0 0 1-.475-1.144h-.95Zm.758 1.82a2.52 2.52 0 0 0 1.812.735v-.95c-.454 0-.828-.152-1.148-.465l-.664.68Zm1.812.735h5.111v-.95h-5.11v.95Zm5.111 0c.711 0 1.302.247 1.799.752l.677-.666a3.36 3.36 0 0 0-2.476-1.036v.95Zm1.804.758c.505.497.752 1.087.752 1.798h.95c0-.965-.349-1.8-1.036-2.475l-.666.677Zm.752 1.798c0 .71-.247 1.307-.755 1.814l.672.672a3.406 3.406 0 0 0 1.033-2.486h-.95Zm-.755 1.814a2.435 2.435 0 0 1-1.8.741v.95c.962 0 1.795-.342 2.472-1.019l-.672-.672Zm-1.8.741h-8.142v.95h8.141v-.95Zm-7.667.475v-.936h-.95v.936h.95Zm-.475-.46h8.141v-.95h-8.141v.95Zm8.141 0c.704 0 1.318-.256 1.817-.754l-.672-.672a1.545 1.545 0 0 1-1.145.476v.95Zm1.817-.754a2.492 2.492 0 0 0 .753-1.816h-.95c0 .45-.154.823-.475 1.144l.672.672Zm.753-1.816c0-.704-.255-1.316-.757-1.806l-.664.68c.317.31.471.675.471 1.126h.95Zm-.753-1.803a2.492 2.492 0 0 0-1.817-.753v.95c.451 0 .824.154 1.145.475l.672-.671Zm-1.817-.753h-5.11v.95h5.11v-.95Zm-5.11 0a2.48 2.48 0 0 1-1.818-.743l-.667.677a3.43 3.43 0 0 0 2.484 1.016v-.95Zm-1.813-.738a2.481 2.481 0 0 1-.743-1.817h-.95a3.43 3.43 0 0 0 1.016 2.483l.677-.666Zm-.743-1.817c0-.714.244-1.305.74-1.801l-.671-.672a3.383 3.383 0 0 0-1.02 2.473h.95Zm.74-1.801a2.457 2.457 0 0 1 1.815-.755v-.95c-.964 0-1.802.349-2.486 1.033l.671.672Zm14.384.404-.336-.336.336.336Zm7.904 0 .336-.336-.336.336Zm0 7.904.336.336-.336-.336Zm-7.904 0-.336.336.336-.336Zm1.62.084-.24.41.004.002.236-.412Zm4.664 0 .236.412.004-.002-.24-.41Zm1.69-1.704-.41-.24-.003.005.413.235Zm0-4.664-.413.236.003.004.41-.24Zm-1.69-1.69-.24.41.004.003.236-.413Zm-4.664 0 .235.413.004-.003-.24-.41Zm-1.704 1.69-.41-.24-.002.004.412.236Zm0 4.664-.413.236.003.004.41-.24Zm4.525-2.82-.348.324.011.011.013.012.324-.348Zm0 .99.335.337-.335-.336Zm-.992 0-.347.325.011.012.012.011.324-.347Zm0-.99-.336-.336.336.335Zm-3.113-3.128c1-1 2.196-1.495 3.616-1.495v-.95c-1.671 0-3.11.594-4.288 1.773l.672.672Zm3.616-1.495c1.42 0 2.616.495 3.616 1.495l.672-.672c-1.179-1.179-2.617-1.773-4.288-1.773v.95Zm3.616 1.495c1 1 1.495 2.196 1.495 3.616h.95c0-1.67-.595-3.11-1.773-4.288l-.672.672Zm1.495 3.616c0 1.42-.495 2.617-1.495 3.616l.672.672c1.178-1.179 1.773-2.617 1.773-4.288h-.95Zm-1.495 3.616c-1 1-2.196 1.495-3.616 1.495v.95c1.67 0 3.11-.594 4.288-1.773l-.672-.672Zm-3.616 1.495c-1.42 0-2.616-.495-3.616-1.495l-.672.672c1.178 1.179 2.617 1.773 4.288 1.773v-.95Zm-3.616-1.495c-1-1-1.495-2.196-1.495-3.616h-.95c0 1.671.594 3.11 1.773 4.288l.672-.672Zm-1.495-3.616c0-1.42.495-2.616 1.495-3.616l-.672-.672c-1.179 1.179-1.773 2.617-1.773 4.288h.95Zm2.543 4.448c.79.452 1.649.678 2.568.678v-.95a4.146 4.146 0 0 1-2.097-.552l-.471.824Zm2.568.678c.92 0 1.778-.226 2.568-.678l-.472-.824a4.146 4.146 0 0 1-2.096.551v.95Zm2.572-.68a5.039 5.039 0 0 0 1.862-1.878l-.825-.471a4.09 4.09 0 0 1-1.517 1.529l.48.82Zm1.86-1.874c.462-.79.693-1.65.693-2.572h-.95c0 .755-.187 1.45-.563 2.093l.82.479Zm.693-2.572c0-.921-.231-1.781-.693-2.572l-.82.48c.376.643.563 1.338.563 2.092h.95Zm-.691-2.568a4.935 4.935 0 0 0-1.866-1.866l-.472.825c.644.367 1.146.87 1.513 1.513l.825-.472Zm-1.862-1.864a5.017 5.017 0 0 0-2.572-.693v.95c.754 0 1.449.187 2.092.563l.48-.82Zm-2.572-.693c-.921 0-1.782.231-2.572.693l.48.82a4.067 4.067 0 0 1 2.092-.563v-.95Zm-2.568.69a5.04 5.04 0 0 0-1.878 1.863l.82.48a4.09 4.09 0 0 1 1.53-1.517l-.472-.825Zm-1.88 1.867a5.097 5.097 0 0 0-.677 2.568h.95c0-.756.183-1.452.551-2.096l-.825-.472Zm-.677 2.568c0 .92.225 1.778.677 2.568l.824-.471a4.146 4.146 0 0 1-.552-2.097h-.95Zm.679 2.572a5.146 5.146 0 0 0 1.874 1.874l.48-.82a4.196 4.196 0 0 1-1.534-1.533l-.82.479Zm4.61-2.713c.041.038.06.074.06.141h.95a1.12 1.12 0 0 0-.361-.836l-.648.695Zm.06.141a.213.213 0 0 1-.071.167l.671.672a1.16 1.16 0 0 0 .35-.839h-.95Zm-.071.167c-.036.035-.075.056-.153.056v.95c.313 0 .6-.109.825-.334l-.672-.672Zm-.153.056a.237.237 0 0 1-.179-.067l-.648.694c.23.215.514.323.827.323v-.95Zm-.156-.044a.237.237 0 0 1-.067-.179h-.95c0 .313.108.597.323.827l.694-.648Zm-.067-.179c0-.078.02-.117.056-.153l-.672-.671a1.138 1.138 0 0 0-.334.824h.95Zm.056-.153a.212.212 0 0 1 .167-.07v-.95c-.323 0-.611.12-.839.349l.672.671Zm.167-.07c.067 0 .103.018.141.059l.695-.649a1.115 1.115 0 0 0-.836-.36v.95Zm19.16-.852-.413-.236-.001.003.414.233Zm-1.02 1.075-.253-.402-.637.402.637.402.253-.402Zm1.02 1.09-.416.229.006.01.41-.24Zm.391 4.496v.475h.475v-.475h-.475Zm-.936 0h-.475v.475h.475v-.475Zm-.614-4.497-.336.336.004.004.332-.34Zm-8.687-.614v-.475h-.475v.475h.475Zm0 5.111v.475h.475v-.475h-.475Zm-.935 0h-.475v.475h.475v-.475Zm0-11.172v-.475h-.475v.475h.475Zm10.278.894-.338.333.005.005.333-.338Zm-9.343.042V9.95h-.475v.475h.475Zm0 4.175h-.475v.475h.475V14.6Zm8.687-.6.332.34.004-.004-.336-.336Zm0-2.96-.336.335.336-.336Zm1.075 1.48c0 .448-.109.86-.329 1.244l.825.472a3.41 3.41 0 0 0 .454-1.716h-.95Zm-.33 1.247a2.494 2.494 0 0 1-.859.906l.507.804a3.45 3.45 0 0 0 1.18-1.244l-.828-.466Zm-.859 1.71c.358.226.643.529.857.917l.832-.459a3.418 3.418 0 0 0-1.182-1.262l-.507.804Zm.863.927c.217.372.326.778.326 1.227h.95c0-.613-.152-1.184-.456-1.706l-.82.479Zm.326 1.227v3.03h.95v-3.03h-.95Zm.475 2.555h-.936v.95h.936v-.95Zm-.461.475v-3.03h-.95v3.03h.95Zm0-3.03c0-.704-.255-1.316-.757-1.806l-.664.68a1.5 1.5 0 0 1 .471 1.126h.95Zm-.753-1.803a2.495 2.495 0 0 0-1.817-.753v.95c.451 0 .824.154 1.145.475l.672-.671Zm-1.817-.753h-7.206v.95h7.206v-.95Zm-7.681.475v5.111h.95V15.55h-.95Zm.475 4.636h-.935v.95h.935v-.95Zm-.46.475V9.49h-.95v11.172h.95Zm-.475-10.697h8.141v-.95h-8.141v.95Zm8.141 0c.711 0 1.302.247 1.799.752l.677-.666a3.362 3.362 0 0 0-2.476-1.036v.95Zm1.804.757c.505.497.752 1.088.752 1.799h.95c0-.965-.349-1.8-1.036-2.476l-.666.677Zm-9.485-.296V14.6h.95v-4.175h-.95Zm.475 4.65h7.206v-.95h-7.206v.95Zm7.206 0c.701 0 1.314-.248 1.813-.736l-.664-.679c-.32.313-.694.465-1.149.465v.95Zm1.817-.74a2.493 2.493 0 0 0 .753-1.816h-.95c0 .451-.154.824-.475 1.145l.672.672Zm.753-1.816c0-.703-.255-1.317-.753-1.816l-.672.672c.321.321.475.694.475 1.145h.95Zm-.753-1.816a2.494 2.494 0 0 0-1.817-.753v.95c.451 0 .824.154 1.145.475l.672-.672Zm-1.817-.753h-7.206v.95h7.206v-.95Zm16.996-.46h.475v-.476h-.475v.475Zm0 .935v.475h.475v-.475h-.475Zm-9.622.614.336.336-.336-.336Zm0 2.96-.336.337.004.003.332-.34Zm8.728 1.495-.338.333.005.006.333-.339Zm0 4.287-.336-.335.336.335Zm-10.278.88h-.475v.475h.475v-.475Zm0-.936v-.475h-.475v.476h.475Zm9.622-.614-.336-.336.336.336Zm0-2.947-.336.336.004.004.332-.34Zm-8.742-1.494-.339.333.005.006.334-.339Zm0-4.287-.336-.336.336.336Zm2.15-.419h8.142v-.95h-8.142v.95Zm7.667-.475v.936h.95V9.49h-.95Zm.475.46h-8.142v.95h8.142v-.95Zm-8.142 0c-.703 0-1.318.256-1.816.754l.672.672c.321-.32.694-.475 1.144-.475v-.95Zm-1.816.754a2.494 2.494 0 0 0-.754 1.817h.95c0-.451.155-.824.476-1.145l-.672-.672Zm-.754 1.817c0 .703.256 1.317.754 1.816l.672-.672a1.544 1.544 0 0 1-.476-1.144h-.95Zm.758 1.82a2.515 2.515 0 0 0 1.812.735v-.95c-.454 0-.828-.152-1.148-.465l-.664.68Zm1.812.735h5.111v-.95h-5.111v.95Zm5.111 0c.711 0 1.302.247 1.799.752l.677-.666a3.362 3.362 0 0 0-2.476-1.036v.95Zm1.804.758c.505.497.752 1.087.752 1.798h.95c0-.965-.349-1.8-1.036-2.475l-.666.677Zm.752 1.798c0 .71-.247 1.307-.755 1.814l.672.672a3.408 3.408 0 0 0 1.033-2.486h-.95Zm-.755 1.814a2.434 2.434 0 0 1-1.801.741v.95c.963 0 1.796-.342 2.473-1.019l-.672-.672Zm-1.801.741h-8.141v.95h8.141v-.95Zm-7.666.475v-.936h-.95v.936h.95Zm-.475-.46h8.141v-.95h-8.141v.95Zm8.141 0c.704 0 1.318-.256 1.817-.754l-.672-.672a1.544 1.544 0 0 1-1.145.476v.95Zm1.817-.754a2.493 2.493 0 0 0 .753-1.816h-.95c0 .45-.154.823-.475 1.144l.672.672Zm.753-1.816c0-.704-.255-1.316-.757-1.806l-.664.68a1.5 1.5 0 0 1 .471 1.126h.95Zm-.753-1.803a2.495 2.495 0 0 0-1.817-.753v.95c.451 0 .824.154 1.145.475l.672-.671Zm-1.817-.753h-5.111v.95h5.111v-.95Zm-5.111 0a2.48 2.48 0 0 1-1.817-.743l-.667.677a3.43 3.43 0 0 0 2.484 1.016v-.95Zm-1.812-.738a2.48 2.48 0 0 1-.743-1.817h-.95a3.43 3.43 0 0 0 1.016 2.483l.677-.666Zm-.743-1.817c0-.714.244-1.305.741-1.801l-.672-.672a3.382 3.382 0 0 0-1.019 2.473h.95Zm.741-1.801a2.456 2.456 0 0 1 1.814-.755v-.95c-.964 0-1.802.349-2.486 1.033l.672.672Zm12.749-.294h-.475v.475h.475v-.475Zm0-.936v-.475h-.475v.475h.475Zm11.172 0h.475v-.475h-.475v.475Zm0 .936v.475h.475v-.475h-.475Zm-5.111 0V9.95h-.475v.475h.475Zm0 10.236v.475h.475v-.475h-.475Zm-.95 0h-.475v.475h.475v-.475Zm0-10.236h.475V9.95h-.475v.475Zm-4.636 0V9.49h-.95v.936h.95Zm-.475-.46h11.172v-.95h-11.172v.95Zm10.697-.476v.936h.95V9.49h-.95Zm.475.46h-5.111v.95h5.111v-.95Zm-5.586.476V20.66h.95V10.425h-.95Zm.475 9.761h-.95v.95h.95v-.95Zm-.475.475V10.425h-.95V20.66h.95Zm-.475-10.711h-5.111v.95h5.111v-.95Zm4.803 10.711-.414-.233-.398.708h.812v-.475Zm6.285-11.172.414-.232-.414-.738-.414.737.414.233Zm6.27 11.172v.475h.811l-.397-.707-.414.232Zm-1.145 0-.415.232.137.243h.278v-.475Zm-5.125-9.147.414-.232-.414-.739-.414.738.414.233Zm-5.139 9.147v.475h.278l.136-.242-.414-.233Zm-.732.233 6.285-11.172-.828-.466-6.285 11.172.828.466Zm5.456-11.172 6.271 11.172.828-.465-6.27-11.172-.829.465Zm6.685 10.464h-1.145v.95h1.145v-.95Zm-.731.243-5.125-9.147-.829.464 5.125 9.147.829-.464Zm-5.953-9.148-5.14 9.147.829.466 5.139-9.147-.828-.466Zm-4.725 8.905h-1.146v.95h1.146v-.95Zm23.21-10.697v-.475h-.214l-.142.161.356.314Zm1.327 0 .356.314.697-.789h-1.053v.475Zm-4.93 5.586-.356-.314-.277.314.277.314.356-.314Zm4.93 5.586v.475h1.053l-.697-.79-.356.315Zm-1.327 0-.356.314.142.161h.214v-.475Zm-4.259-4.832.356-.314-.356-.404-.356.404.356.314Zm-4.259 4.832v.475h.214l.142-.16-.356-.315Zm-1.327 0-.356-.314-.697.79h1.053v-.476Zm4.93-5.586.356.314.277-.314-.277-.314-.356.314Zm-4.93-5.586v-.475h-1.053l.697.79.356-.315Zm1.327 0 .356-.314-.142-.16h-.214v.474Zm4.259 4.832-.356.314.356.404.356-.404-.356-.314Zm4.259-4.357h1.327v-.95h-1.327v.95Zm.971-.79-4.93 5.587.712.628 4.93-5.586-.712-.628Zm-4.93 6.215 4.93 5.586.712-.628-4.93-5.586-.712.628Zm5.286 4.797h-1.327v.95h1.327v-.95Zm-.97.161-4.26-4.832-.712.628 4.259 4.832.713-.628Zm-4.972-4.832-4.26 4.832.713.628 4.259-4.832-.712-.628Zm-3.903 4.671h-1.327v.95h1.327v-.95Zm-.971.79 4.93-5.587-.713-.628-4.929 5.586.712.628Zm4.93-6.215-4.93-5.586-.712.628 4.929 5.586.713-.628Zm-5.286-4.797h1.327v-.95h-1.327v.95Zm.97-.16 4.26 4.831.712-.628-4.259-4.832-.713.628Zm4.972 4.831 4.26-4.832-.713-.628-4.259 4.832.712.628Z" mask="url(#a)"/><g filter="url(#b)"><path fill="#7A7A7A" d="M11.971 15.964 3.2 11.967 1.02 12.99v4.275l1.512-.641c.123-.053.659-.173 1.093.038l6.773 3.169-.021 2.42-6.344-2.914c-.574-.415-1.244-.229-1.374-.211l-1.625.705v1.787c.001.503.096.86.599 1.155l10.962 5.201 10.744-5.151c.611-.343.656-.726.656-.8v-1.234c.027-.5-.074-.739-.458-1.018l-1.262-.613s-.166-.06-.384-.06-.409.06-.409.06l-6.953 3.119v-2.46l3.933-1.84-4.804-2.185h-.075c-.642.08-.866.408-1.613.173ZM23.26 5.983 12.527 1 1.698 5.901c-.268.194-.51.181-.698.87l.025 1.432c-.026.277.226.775.557.927l1.214.601c.26.082.4.081.635 0l6.944-3.07V9.13l-4.009 1.808 4.338 2.027c.06 0 .416.19.624.148l.698-.193c.317-.11.478-.052.65 0l8.825 3.981 2.445-1.106v-4.268l-1.43.662c-.297.207-.896.12-1.153.053l-6.879-3.126.035-2.467 6.273 2.865c.215.105.67.363 1.509.244l1.649-.751V7.188c0-.629-.159-.988-.69-1.205Z"/><path stroke="url(#c)" stroke-width=".3" d="M11.971 15.964 3.2 11.967 1.02 12.99v4.275l1.512-.641c.123-.053.659-.173 1.093.038l6.773 3.169-.021 2.42-6.344-2.914c-.574-.415-1.244-.229-1.374-.211l-1.625.705v1.787c.001.503.096.86.599 1.155l10.962 5.201 10.744-5.151c.611-.343.656-.726.656-.8v-1.234c.027-.5-.074-.739-.458-1.018l-1.262-.613s-.166-.06-.384-.06-.409.06-.409.06l-6.953 3.119v-2.46l3.933-1.84-4.804-2.185h-.075c-.642.08-.866.408-1.613.173Z"/><path stroke="url(#d)" stroke-width=".3" d="M23.26 5.983 12.527 1 1.698 5.901c-.268.194-.51.181-.698.87l.025 1.432c-.026.277.226.775.557.927l1.214.601c.26.082.4.081.635 0l6.944-3.07V9.13l-4.009 1.808 4.338 2.027c.06 0 .416.19.624.148l.698-.193c.317-.11.478-.052.65 0l8.825 3.981 2.445-1.106v-4.268l-1.43.662c-.297.207-.896.12-1.153.053l-6.879-3.126.035-2.467 6.273 2.865c.215.105.67.363 1.509.244l1.649-.751V7.188c0-.629-.159-.988-.69-1.205Z"/></g><defs><radialGradient id="c" cx="0" cy="0" r="1" gradientTransform="matrix(0 13.4867 -11.5 0 12.5 14.487)" gradientUnits="userSpaceOnUse"><stop stop-color="#626262"/><stop offset="1" stop-color="#EE4C2C"/></radialGradient><radialGradient id="d" cx="0" cy="0" r="1" gradientTransform="matrix(0 13.4867 -11.5 0 12.5 14.487)" gradientUnits="userSpaceOnUse"><stop stop-color="#626262"/><stop offset="1" stop-color="#EE4C2C"/></radialGradient><filter id="b" width="399.5" height="403.505" x="-187.25" y="-187.265" color-interpolation-filters="sRGB" filterUnits="userSpaceOnUse"><feFlood flood-opacity="0" result="BackgroundImageFix"/><feGaussianBlur in="BackgroundImageFix" stdDeviation="94.05"/><feComposite in2="SourceAlpha" operator="in" result="effect1_backgroundBlur_2014_448"/><feBlend in="SourceGraphic" in2="effect1_backgroundBlur_2014_448" result="shape"/><feColorMatrix in="SourceAlpha" result="hardAlpha" values="0 0 0 0 0 0 0 0 0 0 0 0 0 0 0 0 0 0 127 0"/><feOffset dy="4.18"/><feGaussianBlur stdDeviation="2.09"/><feComposite in2="hardAlpha" k2="-1" k3="1" operator="arithmetic"/><feColorMatrix values="0 0 0 0 0 0 0 0 0 0 0 0 0 0 0 0 0 0 0.7 0"/><feBlend in2="shape" result="effect2_innerShadow_2014_448"/></filter></defs></svg>