<svg width="665" height="457" viewBox="0 0 665 457" fill="none" xmlns="http://www.w3.org/2000/svg">
<path d="M2.8493 285.197L432.275 416.598" stroke="#F75049" stroke-width="2.66667" stroke-linecap="square"/>
<path d="M41.2681 254.516L467.485 382.927" stroke="#F75049" stroke-width="2.66667" stroke-linecap="square"/>
<path d="M78.8369 224.512L501.88 350.036" stroke="#F75049" stroke-width="2.66667" stroke-linecap="square"/>
<path d="M115.583 195.165L535.486 317.896" stroke="#F75049" stroke-width="2.66667" stroke-linecap="square"/>
<path d="M151.538 166.452L568.337 286.484" stroke="#F75049" stroke-width="2.66667" stroke-linecap="square"/>
<path d="M186.723 138.353L600.452 255.774" stroke="#F75049" stroke-width="2.66667" stroke-linecap="square"/>
<path d="M221.163 110.85L631.856 225.743" stroke="#F75049" stroke-width="2.66667" stroke-linecap="square"/>
<path d="M254.88 83.9219L662.572 196.369" stroke="#F75049" stroke-width="2.66667" stroke-linecap="square"/>
<path d="M2.8493 285.197L254.882 83.9219" stroke="#F75049" stroke-width="2.66667" stroke-linecap="square"/>
<path d="M61.7778 303.229L310.997 99.3992" stroke="#F75049" stroke-width="2.66667" stroke-linecap="square"/>
<path d="M121.487 321.499L367.801 115.066" stroke="#F75049" stroke-width="2.66667" stroke-linecap="square"/>
<path d="M181.989 340.013L425.303 130.926" stroke="#F75049" stroke-width="2.66667" stroke-linecap="square"/>
<path d="M243.303 358.774L483.518 146.983" stroke="#F75049" stroke-width="2.66667" stroke-linecap="square"/>
<path d="M305.445 377.789L542.46 163.239" stroke="#F75049" stroke-width="2.66667" stroke-linecap="square"/>
<path d="M368.425 397.061L602.136 179.7" stroke="#F75049" stroke-width="2.66667" stroke-linecap="square"/>
<path d="M432.274 416.598L662.574 196.369" stroke="#F75049" stroke-width="2.66667" stroke-linecap="square"/>
<path d="M221.163 110.844L277.661 125.51L310.997 99.3068L254.881 83.9207L221.163 110.844Z" fill="black" stroke="#F75049" stroke-width="1.33333"/>
<path d="M277.66 125.51L334.863 115.644L367.806 113.248L310.996 99.3069L277.66 125.51Z" fill="black" stroke="#F75049" stroke-width="1.33333"/>
<path d="M186.725 138.564L243.671 158.697L277.659 125.51L221.161 110.844L186.725 138.564Z" fill="black" stroke="#F75049" stroke-width="1.33333"/>
<path d="M334.863 115.644L393.63 33.9841L425.387 122.919L367.806 113.248L334.863 115.644Z" fill="black" stroke="#F75049" stroke-width="1.33333"/>
<path d="M243.672 158.696L301.153 152.661L334.863 115.643L277.66 125.51L243.672 158.696Z" fill="black" stroke="#F75049" stroke-width="1.33333"/>
<path d="M151.563 167.468L209.266 209.786L243.673 158.697L186.728 138.564L151.563 167.468Z" fill="black" stroke="#F75049" stroke-width="1.33333"/>
<path d="M209.266 209.786L267.662 290.625L301.154 152.661L243.673 158.697L209.266 209.786Z" fill="black" stroke="#F75049" stroke-width="1.33333"/>
<path d="M393.633 33.9841L453.188 49.8289L483.663 138.942L425.39 122.919L393.633 33.9841Z" fill="black" stroke="#F75049" stroke-width="1.33333"/>
<path d="M453.186 49.8287L511.454 162.044L542.506 161.368L483.662 138.941L453.186 49.8287Z" fill="black" stroke="#F75049" stroke-width="1.33333"/>
<path d="M115.611 196.075L173.722 233.36L209.266 209.786L151.563 167.468L115.611 196.075Z" fill="black" stroke="#F75049" stroke-width="1.33333"/>
<path d="M511.453 162.044L571.005 206.871L602.142 179.597L542.505 161.368L511.453 162.044Z" fill="black" stroke="#F75049" stroke-width="1.33333"/>
<path d="M173.721 233.36L232.195 264.798L267.661 290.625L209.265 209.786L173.721 233.36Z" fill="black" stroke="#F75049" stroke-width="1.33333"/>
<path d="M301.154 152.661L360.066 1.38919L393.632 33.9839L334.865 115.643L301.154 152.661Z" fill="black" stroke="#F75049" stroke-width="1.33333"/>
<path d="M571.006 206.871L631.858 225.713L662.574 196.367L602.143 179.598L571.006 206.871Z" fill="black" stroke="#F75049" stroke-width="1.33333"/>
<path d="M267.663 290.625L325.592 196.533L360.067 1.38919L301.155 152.661L267.663 290.625Z" fill="black" stroke="#F75049" stroke-width="1.33333"/>
<path d="M78.8381 224.603L136.934 241.466L173.719 233.36L115.608 196.075L78.8381 224.603Z" fill="black" stroke="#F75049" stroke-width="1.33333"/>
<path d="M479.613 155.92L539.281 230.077L571.007 206.871L511.454 162.044L479.613 155.92Z" fill="black" stroke="#F75049" stroke-width="1.33333"/>
<path d="M232.194 264.798L290.24 131.776L325.59 196.533L267.661 290.625L232.194 264.798Z" fill="black" stroke="#F75049" stroke-width="1.33333"/>
<path d="M420.506 17.5972L479.612 155.92L511.453 162.044L453.186 49.8288L420.506 17.5972Z" fill="black" stroke="#F75049" stroke-width="1.33333"/>
<path d="M360.064 1.38919L420.505 17.5971L453.185 49.8287L393.631 33.9839L360.064 1.38919Z" fill="black" stroke="#F75049" stroke-width="1.33333"/>
<path d="M136.938 241.466L195.37 234.836L232.196 264.798L173.722 233.36L136.938 241.466Z" fill="black" stroke="#F75049" stroke-width="1.33333"/>
<path d="M539.281 230.077L600.461 255.54L631.858 225.713L571.007 206.871L539.281 230.077Z" fill="black" stroke="#F75049" stroke-width="1.33333"/>
<path d="M325.59 196.533L385.158 229.722L420.505 17.5971L360.064 1.38919L325.59 196.533Z" fill="black" stroke="#F75049" stroke-width="1.33333"/>
<path d="M41.2681 254.494L99.7606 271.336L136.937 241.466L78.8414 224.603L41.2681 254.494Z" fill="black" stroke="#F75049" stroke-width="1.33333"/>
<path d="M290.24 131.776L350.891 250.537L385.158 229.722L325.59 196.533L290.24 131.776Z" fill="black" stroke="#F75049" stroke-width="1.33333"/>
<path d="M385.159 229.722L446.757 150.554L479.612 155.92L420.506 17.5972L385.159 229.722Z" fill="black" stroke="#F75049" stroke-width="1.33333"/>
<path d="M195.371 234.836L255.747 307.955L290.244 131.776L232.197 264.798L195.371 234.836Z" fill="black" stroke="#F75049" stroke-width="1.33333"/>
<path d="M446.758 150.554L507.038 242.027L539.281 230.077L479.613 155.92L446.758 150.554Z" fill="black" stroke="#F75049" stroke-width="1.33333"/>
<path d="M255.744 307.955L316.271 454.118L350.891 250.537L290.241 131.776L255.744 307.955Z" fill="black" stroke="#F75049" stroke-width="1.33333"/>
<path d="M507.036 242.027L568.363 285.573L600.459 255.54L539.279 230.077L507.036 242.027Z" fill="black" stroke="#F75049" stroke-width="1.33333"/>
<path d="M99.7586 271.336L159.14 293.447L195.368 234.836L136.935 241.466L99.7586 271.336Z" fill="black" stroke="#F75049" stroke-width="1.33333"/>
<path d="M220.326 388.768L280.849 445.453L316.271 454.118L255.743 307.955L220.326 388.768Z" fill="black" stroke="#F75049" stroke-width="1.33333"/>
<path d="M159.144 293.447L220.33 388.768L255.747 307.955L195.371 234.836L159.144 293.447Z" fill="black" stroke="#F75049" stroke-width="1.33333"/>
<path d="M350.892 250.536L412.532 181.021L446.758 150.554L385.16 229.722L350.892 250.536Z" fill="black" stroke="#F75049" stroke-width="1.33333"/>
<path d="M2.8493 285.195L61.7758 303.151L99.7598 271.336L41.2673 254.494L2.8493 285.195Z" fill="black" stroke="#F75049" stroke-width="1.33333"/>
<path d="M316.271 454.118L376.935 331.736L412.53 181.022L350.89 250.536L316.271 454.118Z" fill="black" stroke="#F75049" stroke-width="1.33333"/>
<path d="M280.852 445.453L341.639 372.889L376.939 331.736L316.274 454.118L280.852 445.453Z" fill="black" stroke="#F75049" stroke-width="1.33333"/>
<path d="M61.7754 303.151L121.489 321.598L159.141 293.447L99.7594 271.336L61.7754 303.151Z" fill="black" stroke="#F75049" stroke-width="1.33333"/>
<path d="M412.531 181.021L473.607 272.123L507.037 242.027L446.756 150.554L412.531 181.021Z" fill="black" stroke="#F75049" stroke-width="1.33333"/>
<path d="M473.608 272.123L535.513 316.95L568.365 285.573L507.038 242.027L473.608 272.123Z" fill="black" stroke="#F75049" stroke-width="1.33333"/>
<path d="M121.488 321.598L182.092 345.284L220.326 388.768L159.14 293.447L121.488 321.598Z" fill="black" stroke="#F75049" stroke-width="1.33333"/>
<path d="M182.092 345.284L243.397 366.721L280.849 445.453L220.326 388.768L182.092 345.284Z" fill="black" stroke="#F75049" stroke-width="1.33333"/>
<path d="M376.934 331.736L439.102 326.299L473.605 272.123L412.528 181.022L376.934 331.736Z" fill="black" stroke="#F75049" stroke-width="1.33333"/>
<path d="M439.103 326.299L501.883 349.807L535.511 316.95L473.606 272.123L439.103 326.299Z" fill="black" stroke="#F75049" stroke-width="1.33333"/>
<path d="M341.635 372.89L404.136 364.726L439.103 326.299L376.935 331.736L341.635 372.89Z" fill="black" stroke="#F75049" stroke-width="1.33333"/>
<path d="M243.399 366.721L305.452 379.699L341.637 372.889L280.851 445.453L243.399 366.721Z" fill="black" stroke="#F75049" stroke-width="1.33333"/>
<path d="M404.137 364.726L467.485 382.922L501.885 349.807L439.104 326.299L404.137 364.726Z" fill="black" stroke="#F75049" stroke-width="1.33333"/>
<path d="M305.451 379.699L368.428 397.136L404.137 364.726L341.636 372.889L305.451 379.699Z" fill="black" stroke="#F75049" stroke-width="1.33333"/>
<path d="M368.425 397.136L432.272 416.598L467.482 382.921L404.134 364.726L368.425 397.136Z" fill="black" stroke="#F75049" stroke-width="1.33333"/>
</svg>
